# xmcd
#
# Track frame offsets: 
#        150
#        11489
#        22016
#        34978
#        49764
#        60666
#        67116
#        78399
#        94542
#        99382
#        115493
#        129933
#        137954
#        152392
#        166023
#        172474
#        183698
#        190126
#        202985
#        214239
#        227966
#        239228
#        245661
#        253696
#        277423
#        304285
#
# Disc length: 4438 seconds
#
# Revision: 1
# Processed by: cddbd v1.5.2PL0 Copyright (c) Steve Scherf et al.
# Submitted via: ExactAudioCopy v0.99pb4
#
DISCID=8911541a
DTITLE=Various Artist - Drum and Bass Arena mixed by Andy C
DYEAR=2003
DGENRE=Drum and Bass
TTITLE0=BAD COMPANY - Bullit Time
TTITLE1=TOTAL SCIENCE - Nosher (Baron Remix)
TTITLE2=MOVING FUSION - Chilli Pepper (Remix)
TTITLE3=HIVE and KEATON - Bring It On
TTITLE4=DJ FRESH - Foreigner
TTITLE5=MC TALI - High Hopes (All Over Now)
TTITLE6=MATRIX and DANNY J - Vertigo
TTITLE7=LENNY FONTANA - Spread Love (Nu:Tone Remix)
TTITLE8=DJ ZINC - Ska (Remix)
TTITLE9=CAPONE - Tudor Rose (Shimon Remix)
TTITLE10=CONCORD DAWN - Ninja
TTITLE11=E-Z ROLLERS - Crowd Rocker
TTITLE12=PHOTEK - We Got Heat (Ram Trilogy Remix)
TTITLE13=JOHN B - Pressure (Remix)
TTITLE14=D. KAY - The Martians
TTITLE15=CONCORD DAWN and TIKI - Don't Tell Me
TTITLE16=M.I.S.T. - Outerspace
TTITLE17=LONDON ELEKTRICITY - Different Drum (Dillinja Remix)
TTITLE18=FRESH - Big Love
TTITLE19=DJ ECCO and SABOTAGE - House Music (VIP Mix)
TTITLE20=ED RUSH and OPTICAL - Goodfoot
TTITLE21=SPIRIT - Out Of Control (Cause4Concern Remix)
TTITLE22=PENDULUM - Back To You
TTITLE23=RESONANT EVIL - Troubleshoot
TTITLE24=MOVING FUSION - Living Daylights
TTITLE25=HOLD TIGHT - Fever
EXTD=
EXTT0=
EXTT1=
EXTT2=
EXTT3=
EXTT4=
EXTT5=
EXTT6=
EXTT7=
EXTT8=
EXTT9=
EXTT10=
EXTT11=
EXTT12=
EXTT13=
EXTT14=
EXTT15=
EXTT16=
EXTT17=
EXTT18=
EXTT19=
EXTT20=
EXTT21=
EXTT22=
EXTT23=
EXTT24=
EXTT25=
PLAYORDER=
